<svg xmlns="http://www.w3.org/2000/svg" width="48" height="48" viewBox="0 0 48 48">
  <!-- Body -->
  <rect x="12" y="20" width="24" height="20" rx="4" fill="#6B46C1"/>
  <!-- Head -->
  <rect x="14" y="6" width="20" height="16" rx="5" fill="#7C5CBF"/>
  <!-- Eyes -->
  <circle cx="19" cy="13" r="3" fill="#14B8A6"/>
  <circle cx="29" cy="13" r="3" fill="#14B8A6"/>
  <circle cx="20" cy="12" r="1.2" fill="white"/>
  <circle cx="30" cy="12" r="1.2" fill="white"/>
  <!-- Antenna -->
  <line x1="24" y1="6" x2="24" y2="1" stroke="#FCD34D" stroke-width="2"/>
  <circle cx="24" cy="1" r="2" fill="#FCD34D"/>
  <!-- Mouth -->
  <rect x="18" y="17" width="12" height="2" rx="1" fill="#14B8A6"/>
  <!-- Arms -->
  <rect x="4" y="22" width="8" height="4" rx="2" fill="#6B46C1"/>
  <rect x="36" y="22" width="8" height="4" rx="2" fill="#6B46C1"/>
  <!-- Legs -->
  <rect x="14" y="38" width="7" height="8" rx="2" fill="#4A2C8E"/>
  <rect x="27" y="38" width="7" height="8" rx="2" fill="#4A2C8E"/>
  <!-- Chest detail -->
  <rect x="19" y="24" width="10" height="6" rx="2" fill="#4A2C8E"/>
  <circle cx="24" cy="27" r="2" fill="#14B8A6"/>
</svg>
